<?xml version="1.0" standalone="no"?>
<!DOCTYPE svg PUBLIC "-//W3C//DTD SVG 20010904//EN"
 "http://www.w3.org/TR/2001/REC-SVG-20010904/DTD/svg10.dtd">
<svg version="1.0" xmlns="http://www.w3.org/2000/svg"
 width="280.000000pt" height="280.000000pt" viewBox="0 0 280.000000 280.000000"
 preserveAspectRatio="xMidYMid meet">
<g transform="translate(0.000000,280.000000) scale(0.100000,-0.100000)"
fill="#000000" stroke="none">
<path d="M2236 1548 c-38 -39 -88 -79 -112 -90 -42 -18 -56 -40 -34 -53 20
-13 100 35 172 104 l75 70 159 3 c142 3 159 5 162 21 3 16 -10 17 -175 16
l-178 -2 -69 -69z"/>
<path d="M2461 1519 c-96 -35 -161 -73 -161 -94 0 -26 17 -25 66 2 27 15 87
41 134 58 55 19 85 36 85 45 0 24 -35 21 -124 -11z"/>
<path d="M2155 1379 c-49 -4 -297 -13 -550 -18 -524 -12 -1429 -41 -1462 -47
-35 -7 -27 -22 14 -30 39 -7 341 -2 838 15 171 6 501 16 735 22 505 13 559 16
567 36 6 17 -14 33 -37 31 -8 0 -55 -4 -105 -9z"/>
<path d="M2349 1324 c-8 -10 -3 -18 22 -33 67 -41 210 -54 217 -20 2 13 -9 18
-60 23 -35 4 -87 15 -116 25 -42 15 -54 16 -63 5z"/>
<path d="M2105 1260 c-10 -16 4 -30 30 -30 36 0 69 -15 109 -51 l37 -32 98 17
c54 9 147 21 207 27 60 5 113 14 118 19 17 17 -6 30 -54 30 -58 0 -270 -27
-320 -40 -31 -9 -38 -7 -65 20 -16 16 -43 34 -58 39 -36 14 -94 14 -102 1z"/>
</g>
</svg>
