<?xml version="1.0" standalone="no"?>
<!DOCTYPE svg PUBLIC "-//W3C//DTD SVG 20010904//EN"
 "http://www.w3.org/TR/2001/REC-SVG-20010904/DTD/svg10.dtd">
<svg version="1.0" xmlns="http://www.w3.org/2000/svg"
 width="768.000000pt" height="768.000000pt" viewBox="0 0 768.000000 768.000000"
 preserveAspectRatio="xMidYMid meet">
<metadata>
Created by potrace 1.15, written by Peter Selinger 2001-2017
</metadata>
<g transform="translate(0.000000,768.000000) scale(0.100000,-0.100000)"
fill="#000000" stroke="none">
<path d="M3345 6456 c-9 -13 -24 -53 -35 -89 -33 -116 -76 -183 -190 -297
-108 -108 -188 -164 -305 -213 -141 -58 -219 -74 -430 -87 -93 -6 -220 -15
-280 -20 -83 -8 -119 -7 -143 2 -46 18 -59 6 -113 -98 l-46 -89 -91 -47 c-92
-47 -255 -154 -392 -259 -305 -231 -532 -505 -752 -909 -181 -332 -299 -613
-334 -797 -30 -159 -18 -361 32 -548 92 -338 196 -595 308 -763 138 -207 505
-573 716 -714 216 -144 512 -282 960 -446 266 -98 428 -140 700 -182 412 -62
1082 -88 1340 -51 36 5 99 14 140 20 102 15 396 70 535 101 22 5 94 18 160 30
66 11 138 25 160 30 178 42 231 57 310 87 262 99 577 274 765 423 191 152 464
466 640 737 119 182 195 347 270 588 17 55 38 123 46 150 69 218 124 559 124
765 0 85 -19 287 -35 387 -53 314 -136 516 -304 733 -173 224 -416 474 -555
569 -74 51 -909 474 -1191 603 -342 157 -618 245 -905 289 -118 18 -198 22
-430 25 l-285 3 -90 31 c-57 20 -113 33 -153 34 -34 1 -67 7 -74 14 -20 20
-56 14 -73 -12z m121 -95 c5 -5 52 -23 104 -41 177 -60 224 -91 423 -274 127
-117 363 -396 452 -535 120 -187 147 -361 117 -736 -33 -406 -64 -570 -163
-863 -33 -97 -82 -242 -109 -322 -62 -186 -76 -221 -145 -360 -79 -162 -135
-291 -200 -470 -126 -341 -140 -404 -140 -618 l0 -164 -25 33 c-68 89 -175
211 -243 276 -172 163 -742 553 -1072 733 -199 109 -319 178 -382 222 -158
109 -290 287 -431 580 -204 425 -242 760 -121 1087 27 73 50 112 217 361 79
118 162 248 184 288 l40 72 56 0 c97 1 402 19 502 31 242 28 475 131 639 284
122 114 210 239 247 352 8 26 17 54 19 61 5 14 17 16 31 3z m884 -111 c261
-30 381 -60 696 -174 105 -38 353 -156 844 -399 431 -214 552 -278 620 -330
164 -125 460 -449 582 -637 197 -305 273 -840 188 -1327 -35 -194 -50 -251
-151 -563 -96 -294 -263 -569 -535 -880 -241 -275 -418 -412 -769 -592 -209
-107 -378 -165 -625 -212 -47 -9 -197 -39 -335 -66 -550 -108 -610 -115 -980
-114 -617 1 -1121 69 -1490 201 -319 113 -520 195 -713 289 -298 145 -415 228
-666 474 -306 299 -416 461 -529 775 -128 358 -169 601 -138 815 21 143 124
404 266 677 216 413 409 669 680 902 106 91 353 281 366 281 5 0 -32 -62 -83
-137 -106 -160 -156 -262 -192 -388 -94 -335 -42 -663 174 -1100 109 -222 206
-370 313 -479 96 -98 175 -151 467 -313 118 -66 249 -141 290 -167 404 -255
705 -470 834 -595 201 -195 447 -563 495 -743 32 -117 41 -138 67 -155 30 -19
59 -9 73 25 10 23 7 46 -13 128 -14 54 -32 131 -40 170 -8 39 -33 118 -55 175
-56 144 -71 215 -71 344 0 145 25 271 93 465 103 292 108 303 254 610 72 149
82 178 212 565 141 422 149 459 192 870 28 267 30 503 5 610 -43 187 -97 288
-279 519 -161 203 -198 244 -336 371 -67 61 -121 113 -121 118 0 14 246 7 410
-13z"/>
</g>
</svg>
