<?xml version="1.0" standalone="no"?>
<!DOCTYPE svg PUBLIC "-//W3C//DTD SVG 20010904//EN"
 "http://www.w3.org/TR/2001/REC-SVG-20010904/DTD/svg10.dtd">
<svg version="1.0" xmlns="http://www.w3.org/2000/svg"
 width="768.000000pt" height="768.000000pt" viewBox="0 0 768.000000 768.000000"
 preserveAspectRatio="xMidYMid meet">
<metadata>
Created by potrace 1.15, written by Peter Selinger 2001-2017
</metadata>
<g transform="translate(0.000000,768.000000) scale(0.100000,-0.100000)"
fill="#000000" stroke="none">
<path d="M3730 7423 c-47 -8 -425 -83 -465 -93 -22 -5 -98 -23 -170 -40 -349
-83 -445 -110 -665 -192 -287 -106 -499 -217 -686 -359 -111 -84 -131 -102
-157 -139 -58 -83 42 -163 114 -91 16 16 29 35 29 43 1 22 153 132 314 227
222 131 554 255 906 340 69 16 172 41 230 55 58 14 161 37 230 51 69 14 172
35 230 47 85 18 137 22 275 22 94 -1 199 -6 235 -12 110 -19 172 -30 265 -50
50 -11 115 -22 145 -26 197 -23 447 -124 565 -228 108 -95 295 -306 295 -332
0 -8 81 -137 124 -196 65 -91 96 -120 131 -120 72 0 75 61 8 151 -26 35 -80
118 -121 184 -87 141 -115 177 -242 309 -139 144 -219 198 -401 271 -119 48
-238 80 -349 95 -41 5 -118 19 -170 30 -189 41 -349 60 -500 59 -80 -1 -156
-4 -170 -6z"/>
<path d="M4160 6904 c-165 -18 -333 -57 -485 -112 -61 -22 -764 -319 -884
-374 -53 -24 -82 -35 -266 -98 -196 -67 -292 -95 -430 -126 -66 -15 -132 -33
-147 -41 -48 -24 -50 -90 -3 -111 25 -11 25 -11 220 32 61 13 238 65 375 110
102 33 244 88 385 149 83 36 224 96 315 135 91 39 221 95 290 125 147 64 276
108 380 131 41 10 93 21 115 26 98 22 256 31 359 20 188 -19 440 -81 546 -135
71 -36 100 -64 225 -220 114 -143 128 -155 169 -155 31 0 46 19 46 59 0 30
-15 55 -86 146 -218 280 -296 326 -689 406 -145 29 -338 44 -435 33z"/>
<path d="M1422 6093 c-7 -3 -18 -17 -24 -32 -15 -38 -47 -359 -48 -472 0 -80
25 -286 44 -364 3 -11 12 -60 21 -110 22 -125 64 -316 91 -420 46 -171 148
-273 207 -207 24 26 22 39 -19 107 -20 33 -40 70 -45 83 -16 42 -81 333 -109
487 -60 332 -63 373 -50 550 23 290 24 333 6 360 -16 24 -43 31 -74 18z"/>
<path d="M5929 6005 c-42 -23 -56 -71 -100 -340 -26 -158 -39 -261 -49 -390
-13 -164 -34 -324 -56 -415 -8 -36 -19 -83 -24 -106 -9 -43 1 -109 20 -128 16
-16 59 11 83 52 42 72 83 277 102 517 16 200 19 228 61 475 41 241 42 243 49
272 5 21 1 32 -19 52 -29 30 -32 30 -67 11z"/>
<path d="M3116 5909 c-213 -29 -485 -130 -708 -262 -40 -24 -133 -79 -206
-123 -154 -91 -212 -145 -212 -198 0 -79 58 -87 130 -19 64 61 531 335 605
355 11 4 59 20 107 37 204 72 406 102 552 82 133 -19 168 -45 318 -236 35 -44
80 -89 102 -101 99 -56 261 -68 448 -35 81 15 151 37 285 91 242 98 281 108
537 135 162 17 291 8 353 -23 21 -11 70 -46 108 -76 74 -60 101 -72 139 -62
30 7 39 40 22 81 -14 32 -116 121 -186 161 -105 61 -260 77 -480 50 -245 -30
-340 -57 -616 -174 -102 -43 -220 -65 -349 -66 -118 0 -174 12 -214 48 -13 11
-55 62 -92 112 -88 118 -163 177 -265 210 -60 19 -281 27 -378 13z"/>
<path d="M1729 5326 c-13 -6 -25 -20 -27 -30 -2 -10 26 -75 62 -145 62 -120
112 -242 141 -341 25 -86 93 -460 83 -460 -3 0 -19 5 -37 11 -25 9 -36 8 -56
-5 -51 -33 -22 -92 73 -153 l55 -35 -6 -142 c-7 -152 -13 -181 -107 -481 -146
-468 -158 -754 -46 -1090 61 -181 177 -350 308 -449 72 -54 403 -234 633 -345
181 -88 258 -112 515 -161 58 -11 137 -26 175 -34 167 -34 254 -41 530 -41
345 1 459 13 675 72 387 105 552 190 657 338 66 93 191 353 229 475 24 77 43
187 54 318 6 70 15 159 20 197 14 106 12 270 -5 360 -8 44 -30 143 -50 220
-68 268 -80 335 -100 570 -8 94 -20 216 -26 271 -12 98 -11 103 9 132 22 30
28 68 14 88 -4 6 -20 15 -37 21 -40 13 -47 52 -48 263 0 189 21 336 59 412 29
57 31 109 6 131 -41 38 -88 9 -126 -76 -36 -80 -37 -84 -57 -217 -22 -150 -24
-330 -4 -460 22 -141 24 -132 -51 -168 -65 -30 -67 -30 -103 -14 -20 9 -59 31
-87 49 -121 78 -223 100 -389 82 -204 -21 -262 -36 -386 -101 l-116 -59 -79
26 c-93 32 -145 33 -251 5 -42 -11 -85 -20 -95 -20 -11 0 -32 -7 -48 -15 -28
-14 -32 -13 -92 19 -63 35 -150 62 -288 90 -135 27 -172 29 -241 12 -73 -19
-262 -115 -457 -233 l-133 -81 -42 13 c-109 34 -297 110 -297 122 0 33 -82
487 -101 558 -34 128 -150 393 -200 457 -36 44 -77 61 -110 44z m3138 -977
c23 -5 64 -23 90 -39 26 -17 80 -46 120 -65 l72 -35 -5 -48 c-4 -26 -1 -112 5
-192 14 -198 -2 -311 -53 -368 -12 -13 -66 -48 -121 -77 -87 -47 -114 -56
-198 -69 -118 -18 -213 -8 -268 28 -20 14 -56 48 -81 78 -117 137 -155 261
-160 527 l-3 143 70 39 c91 51 145 65 290 79 66 7 122 13 123 15 5 4 65 -4
119 -16z m-1552 -49 c116 -29 213 -63 256 -91 l46 -29 6 -73 c3 -40 17 -112
32 -160 l27 -87 -63 -152 c-35 -83 -74 -164 -87 -180 -30 -36 -140 -100 -212
-124 -46 -16 -85 -19 -235 -19 -200 1 -218 5 -292 69 -83 73 -147 276 -168
531 l-6 81 128 74 c139 81 298 165 329 173 30 9 184 0 239 -13z m2050 -250 c9
-145 32 -332 49 -410 8 -36 21 -96 30 -135 8 -38 31 -131 49 -205 40 -157 51
-283 38 -425 -5 -55 -14 -154 -20 -220 -12 -129 -34 -250 -59 -330 -23 -76
-144 -324 -190 -392 -99 -146 -227 -210 -657 -327 -104 -28 -172 -36 -410 -47
-275 -12 -472 -2 -675 36 -481 91 -483 92 -905 310 -353 182 -429 239 -533
398 -58 89 -92 172 -129 318 -23 90 -27 125 -27 264 -1 119 4 184 18 255 18
94 93 387 102 402 6 9 47 146 75 248 12 42 24 125 27 190 7 107 8 115 27 113
27 -2 206 -68 252 -92 21 -11 45 -22 54 -25 12 -3 17 -24 22 -93 8 -108 56
-293 103 -390 43 -91 112 -161 201 -205 l68 -33 205 0 c186 0 212 2 278 23 40
12 96 36 124 53 151 89 171 115 264 334 51 121 59 148 58 201 0 34 -8 81 -16
105 -29 80 -52 221 -37 232 8 6 195 47 214 47 11 0 51 -11 89 -25 38 -14 71
-25 72 -25 2 0 4 -26 4 -57 0 -105 21 -297 40 -368 34 -133 70 -197 178 -323
97 -113 231 -155 419 -132 114 14 167 32 281 94 149 81 175 109 223 251 25 72
13 478 -15 545 -5 12 5 22 36 38 l43 21 12 -57 c6 -31 14 -104 18 -162z"/>
<path d="M4530 4294 c-93 -18 -157 -50 -168 -83 -15 -43 -3 -79 36 -111 75
-62 199 -78 308 -39 32 11 66 23 75 25 10 3 39 -10 69 -30 60 -42 77 -44 114
-15 31 24 34 61 8 87 -51 47 -166 128 -207 144 -45 18 -187 31 -235 22z"/>
<path d="M3075 4191 c-132 -39 -310 -132 -331 -172 -24 -47 3 -89 57 -89 10 0
61 22 112 50 l94 50 33 -41 c18 -23 53 -50 79 -62 94 -42 251 -15 320 55 26
27 31 40 31 81 0 44 -4 54 -38 87 -21 21 -55 43 -77 49 -61 17 -211 12 -280
-8z"/>
<path d="M3856 4148 c-30 -42 -14 -79 55 -134 27 -21 52 -49 55 -60 8 -30 -15
-71 -74 -130 -59 -60 -72 -83 -62 -109 25 -67 87 -58 164 26 137 148 145 241
29 350 -86 81 -138 99 -167 57z"/>
<path d="M3061 2851 c-25 -25 -25 -34 -6 -164 26 -183 71 -230 271 -278 196
-47 492 -16 774 80 47 15 100 32 119 36 56 12 263 91 316 121 97 53 184 113
194 133 27 49 4 91 -50 91 -12 0 -73 -30 -135 -66 -118 -68 -191 -98 -404
-165 -270 -86 -447 -120 -610 -120 -126 -1 -300 44 -320 81 -5 9 -16 61 -25
116 -9 58 -23 109 -34 124 -24 33 -64 37 -90 11z"/>
<path d="M2959 4737 c-87 -27 -166 -71 -291 -163 -93 -69 -118 -99 -118 -138
0 -31 40 -61 69 -51 11 3 66 40 122 81 124 90 224 141 304 154 81 14 127 5
210 -40 89 -48 192 -83 222 -75 12 3 30 16 38 29 23 34 5 72 -42 92 -21 9 -89
41 -152 72 -106 51 -120 55 -200 58 -69 3 -101 0 -162 -19z"/>
<path d="M4487 4730 c-111 -29 -327 -184 -327 -236 0 -23 38 -54 66 -54 14 0
47 14 73 32 200 138 225 147 334 129 124 -22 198 -44 309 -93 60 -27 69 -29
95 -16 31 14 42 53 24 86 -17 32 -139 89 -261 121 -124 33 -252 46 -313 31z"/>
<path d="M5670 4273 c-69 -18 -90 -37 -90 -80 0 -50 25 -58 150 -44 117 13
133 8 120 -38 -14 -51 -32 -75 -126 -171 -51 -52 -97 -106 -102 -120 -20 -52
23 -99 73 -80 15 6 73 56 129 113 124 125 161 189 161 284 0 71 -20 107 -76
135 -42 22 -160 23 -239 1z"/>
<path d="M1532 4224 c-98 -50 -91 -196 16 -372 67 -112 143 -171 217 -172 97
0 100 99 5 130 -31 10 -52 27 -80 64 -52 71 -92 160 -88 199 l3 32 133 -4
c141 -4 192 7 192 38 0 27 -43 61 -96 77 -27 8 -98 17 -159 20 -91 4 -116 2
-143 -12z"/>
<path d="M2411 1531 c-17 -17 -21 -33 -21 -88 0 -38 -4 -84 -10 -103 -5 -19
-14 -82 -20 -138 -10 -90 -9 -107 5 -128 19 -29 74 -33 97 -6 22 24 69 363 57
407 -19 67 -70 94 -108 56z"/>
<path d="M5135 1460 c-14 -28 -14 -38 1 -118 37 -201 76 -307 125 -345 33 -24
64 -16 84 23 14 27 13 34 -16 106 -17 43 -40 125 -51 183 -27 144 -42 175 -90
179 -32 3 -39 -1 -53 -28z"/>
<path d="M4825 890 c-33 -16 -65 -30 -71 -30 -6 0 -80 -25 -165 -56 -84 -31
-189 -62 -233 -69 -190 -33 -599 -43 -954 -25 -283 15 -444 40 -599 95 -88 30
-126 32 -153 5 -50 -50 -15 -90 120 -134 254 -84 405 -100 965 -100 599 -1
604 0 989 134 156 54 212 83 231 120 20 38 19 46 -5 70 -27 27 -55 25 -125
-10z"/>
<path d="M5293 740 c-59 -36 -39 -73 63 -114 139 -57 350 -176 434 -246 92
-76 118 -89 156 -71 19 8 24 18 24 50 0 36 -6 44 -67 98 -98 86 -123 102 -278
185 -146 78 -240 118 -278 118 -12 0 -37 -9 -54 -20z"/>
<path d="M2132 605 c-169 -79 -335 -225 -397 -348 -38 -75 -39 -104 -8 -139
36 -41 81 -13 122 74 47 100 187 219 352 300 70 34 79 42 79 66 0 33 -8 45
-37 61 -32 16 -52 14 -111 -14z"/>
</g>
</svg>
