<?xml version="1.0" standalone="no"?>
<!DOCTYPE svg PUBLIC "-//W3C//DTD SVG 20010904//EN"
 "http://www.w3.org/TR/2001/REC-SVG-20010904/DTD/svg10.dtd">
<svg version="1.0" xmlns="http://www.w3.org/2000/svg"
 width="768.000000pt" height="768.000000pt" viewBox="0 0 768.000000 768.000000"
 preserveAspectRatio="xMidYMid meet">
<g transform="translate(0.000000,768.000000) scale(0.100000,-0.100000)"
fill="#000000" stroke="none">
<path d="M1720 5560 c-11 -11 -20 -33 -20 -48 0 -16 27 -95 60 -178 74 -181
123 -328 148 -434 36 -156 38 -166 56 -290 28 -198 39 -354 66 -925 5 -121 14
-321 20 -445 20 -420 43 -669 67 -707 34 -56 91 -65 133 -21 16 17 20 35 20
87 0 59 12 130 38 231 27 103 133 326 208 441 140 212 388 404 538 417 51 4
54 3 78 -29 30 -42 59 -134 94 -304 14 -71 30 -148 35 -170 13 -56 34 -167 58
-307 23 -128 44 -213 59 -237 38 -61 86 -77 123 -40 18 18 20 30 16 92 -3 60
-60 382 -97 547 -6 25 -15 68 -20 95 -22 110 -29 144 -49 215 -33 125 -39 140
-72 191 -71 111 -168 143 -307 103 -267 -77 -563 -363 -710 -686 -30 -68 -39
-48 -46 105 -3 78 -11 243 -17 367 -39 876 -66 1113 -165 1440 -32 104 -112
308 -153 387 -59 114 -115 149 -161 103z"/>
<path d="M6690 5510 c-42 -10 -78 -75 -99 -180 -48 -238 -64 -464 -60 -855 l4
-340 -70 -6 c-38 -4 -191 -7 -340 -8 -232 -2 -275 -4 -305 -19 -49 -24 -53
-66 -10 -107 l31 -30 357 -5 357 -5 6 -55 c15 -125 21 -559 10 -707 -12 -164
-43 -402 -68 -523 -23 -112 -22 -175 2 -199 35 -35 69 -36 104 -4 27 24 33 41
50 128 31 160 53 310 71 473 13 116 13 712 0 807 -15 110 -20 102 73 114 196
25 260 31 400 38 171 7 197 18 197 78 0 45 -29 71 -97 86 -53 12 -160 5 -498
-31 -49 -6 -84 -5 -89 0 -14 14 -28 361 -21 540 10 269 46 609 77 713 19 62
-23 112 -82 97z"/>
<path d="M1005 4185 c-135 -15 -188 -26 -290 -60 -238 -80 -449 -254 -551
-456 -34 -69 -49 -110 -75 -204 -18 -64 -18 -273 0 -340 62 -233 181 -399 359
-500 44 -25 181 -79 237 -93 112 -28 149 -32 318 -32 278 0 417 32 516 116 57
49 56 79 -1 95 -35 10 -60 9 -138 -5 -251 -46 -391 -55 -537 -35 -313 42 -517
205 -583 465 -55 216 4 440 161 608 154 165 334 248 619 286 83 12 270 9 341
-5 35 -7 37 -5 43 22 17 75 -52 125 -195 143 -46 5 -90 9 -99 9 -8 -1 -64 -7
-125 -14z"/>
<path d="M4650 3754 c-303 -81 -577 -417 -558 -682 5 -79 54 -179 111 -227
161 -140 449 -165 660 -59 169 85 318 254 403 457 9 20 20 37 24 37 4 0 20
-30 35 -67 52 -127 234 -488 270 -535 46 -62 87 -84 126 -67 66 27 64 69 -8
189 -63 106 -175 336 -234 479 -71 172 -105 211 -184 211 -20 0 -47 -7 -60
-16 -13 -9 -28 -13 -34 -10 -5 3 -22 34 -39 69 -33 69 -99 142 -166 181 -92
54 -233 70 -346 40z m189 -156 c66 -15 139 -71 173 -133 21 -39 28 -64 28
-111 0 -46 5 -68 20 -87 l20 -25 -37 -64 c-20 -35 -66 -93 -102 -129 -115
-115 -216 -159 -362 -159 -154 0 -281 60 -310 147 -60 182 174 488 428 558 62
17 81 17 142 3z"/>
</g>
</svg>
