<?xml version="1.0" standalone="no"?>
<!DOCTYPE svg PUBLIC "-//W3C//DTD SVG 20010904//EN"
 "http://www.w3.org/TR/2001/REC-SVG-20010904/DTD/svg10.dtd">
<svg version="1.0" xmlns="http://www.w3.org/2000/svg"
 width="280.000000pt" height="280.000000pt" viewBox="0 0 280.000000 280.000000"
 preserveAspectRatio="xMidYMid meet">
<metadata>
Created by potrace 1.15, written by Peter Selinger 2001-2017
</metadata>
<g transform="translate(0.000000,280.000000) scale(0.100000,-0.100000)"
fill="#000000" stroke="none">
<path d="M1453 2709 c-9 -9 -7 -21 8 -50 36 -71 27 -109 -62 -283 -88 -174
-96 -211 -46 -211 27 0 34 10 115 170 78 153 87 176 90 236 4 65 -13 122 -42
141 -17 11 -51 9 -63 -3z"/>
<path d="M1102 2400 c-51 -48 -108 -198 -119 -315 -5 -53 -9 -65 -23 -65 -38
0 -200 -53 -276 -90 -107 -52 -154 -103 -154 -164 0 -55 32 -96 99 -130 191
-97 607 -116 946 -42 330 71 574 235 577 388 1 56 -13 81 -63 118 -52 37 -123
52 -239 48 -75 -2 -95 -6 -104 -20 -21 -34 11 -47 131 -57 139 -11 187 -31
191 -79 4 -43 -27 -93 -91 -144 -170 -134 -490 -218 -831 -218 -376 0 -625 91
-503 184 96 73 367 156 367 113 0 -21 78 -125 99 -132 58 -18 66 33 16 96 -19
24 -35 49 -35 56 0 31 192 27 375 -8 105 -20 124 -15 103 24 -24 45 -182 79
-371 80 l-138 1 6 51 c9 70 32 139 72 217 19 37 33 75 31 85 -5 26 -40 27 -66
3z"/>
<path d="M2195 1621 c-3 -11 6 -62 20 -113 57 -207 40 -371 -59 -573 -92 -184
-166 -258 -321 -320 -124 -49 -242 -68 -395 -62 -232 9 -410 71 -528 186 -97
93 -121 158 -147 406 -21 202 -31 248 -60 275 -45 43 -108 0 -65 -45 17 -18
23 -51 40 -196 26 -231 36 -283 70 -355 99 -208 347 -337 676 -351 198 -9 362
24 519 103 152 77 291 275 356 509 43 153 25 402 -38 528 -16 33 -58 38 -68 8z"/>
<path d="M322 1460 c-58 -26 -135 -107 -168 -177 -32 -69 -43 -171 -24 -228
40 -120 187 -183 363 -155 86 14 137 40 137 70 0 27 -37 35 -91 19 -24 -7 -82
-12 -129 -12 -139 0 -210 52 -210 154 0 68 26 133 78 190 77 86 160 105 205
48 21 -27 27 -30 46 -20 23 13 28 49 11 82 -27 50 -139 65 -218 29z"/>
<path d="M2148 579 c-25 -14 -22 -46 5 -63 12 -8 43 -20 70 -27 26 -6 47 -15
47 -19 0 -4 -39 -28 -87 -53 -314 -161 -772 -229 -1062 -157 -90 22 -301 106
-301 120 0 4 20 20 44 34 53 31 59 39 51 66 -8 26 -44 26 -94 0 -97 -49 -126
-103 -78 -148 29 -27 176 -95 276 -126 240 -76 507 -74 827 5 254 62 507 182
533 252 18 50 -17 77 -139 105 -25 6 -52 13 -60 16 -8 3 -23 1 -32 -5z"/>
</g>
</svg>
