<?xml version="1.0" standalone="no"?>
<!DOCTYPE svg PUBLIC "-//W3C//DTD SVG 20010904//EN"
 "http://www.w3.org/TR/2001/REC-SVG-20010904/DTD/svg10.dtd">
<svg version="1.0" xmlns="http://www.w3.org/2000/svg"
 width="768.000000pt" height="768.000000pt" viewBox="0 0 768.000000 768.000000"
 preserveAspectRatio="xMidYMid meet">
<metadata>
Created by potrace 1.15, written by Peter Selinger 2001-2017
</metadata>
<g transform="translate(0.000000,768.000000) scale(0.100000,-0.100000)"
fill="#000000" stroke="none">
<path d="M3813 7268 c-12 -6 -27 -23 -33 -39 -21 -50 10 -111 135 -259 152
-182 187 -227 227 -305 41 -77 42 -83 42 -175 1 -142 -13 -174 -223 -495 -202
-309 -261 -421 -261 -493 0 -110 101 -134 172 -40 13 18 57 92 98 163 40 72
92 157 115 190 80 114 219 340 250 410 40 86 69 229 61 293 -26 191 -74 280
-296 545 -99 118 -144 165 -183 187 -56 32 -70 34 -104 18z"/>
<path d="M3209 6084 c-109 -72 -253 -321 -338 -584 -25 -76 -38 -139 -53 -247
-13 -105 -4 -96 -123 -113 -165 -22 -223 -32 -325 -57 -58 -13 -118 -28 -135
-33 -386 -116 -576 -244 -619 -417 -15 -58 -15 -69 0 -125 14 -57 46 -113 90
-164 35 -39 148 -115 235 -159 90 -45 303 -120 419 -148 374 -89 585 -119 965
-137 209 -9 599 1 735 20 41 6 111 15 155 21 93 12 244 37 295 49 295 71 397
102 559 169 261 108 418 214 553 373 216 254 162 510 -136 652 -99 48 -102 49
-256 76 -281 49 -396 56 -451 24 -29 -17 -34 -26 -37 -63 -2 -24 2 -49 9 -57
23 -28 84 -51 169 -63 47 -7 144 -20 215 -31 321 -46 463 -153 401 -302 -18
-43 -94 -144 -135 -181 -154 -137 -404 -259 -691 -338 -525 -145 -1114 -185
-1745 -118 -365 39 -784 150 -977 259 -135 77 -187 137 -173 199 10 49 104
123 225 178 127 57 393 132 550 153 259 36 249 37 269 -32 31 -107 150 -289
216 -332 51 -34 80 -33 116 3 48 48 38 95 -50 223 -53 78 -96 167 -85 177 11
11 308 6 399 -8 198 -28 472 -86 575 -120 14 -5 45 -14 70 -21 25 -7 64 -19
87 -27 68 -25 108 5 96 70 -18 93 -196 168 -628 267 -96 22 -284 42 -450 48
l-180 7 1 60 c3 164 111 435 260 652 88 127 95 163 43 207 -40 34 -56 33 -120
-10z"/>
<path d="M5798 3901 c-31 -28 -33 -33 -32 -93 1 -35 8 -97 17 -138 52 -243 60
-307 61 -465 2 -249 -45 -498 -131 -705 -28 -68 -118 -246 -161 -320 -55 -94
-182 -278 -224 -328 -72 -82 -211 -213 -267 -251 -155 -105 -376 -187 -646
-240 -360 -69 -806 -47 -1175 60 -19 6 -52 14 -73 20 -70 18 -252 90 -362 145
-318 157 -574 426 -658 689 -49 156 -56 220 -67 645 -16 631 -29 728 -105 785
-67 51 -143 51 -185 -2 -31 -40 -26 -80 16 -118 52 -48 55 -77 69 -685 10
-455 28 -577 113 -772 85 -196 182 -322 376 -491 149 -130 320 -230 531 -312
39 -15 90 -35 115 -45 38 -15 124 -40 310 -89 40 -11 103 -23 245 -47 80 -14
163 -18 410 -18 287 0 318 1 420 23 61 13 128 27 150 31 22 4 67 16 100 25 33
9 74 21 90 25 94 24 259 94 358 152 222 129 428 352 613 663 177 297 264 522
317 815 27 156 29 502 3 630 -9 47 -21 108 -26 135 -41 218 -59 262 -117 290
-42 20 -48 19 -85 -14z"/>
<path d="M1135 3900 c-126 -27 -182 -52 -288 -129 -250 -182 -406 -465 -407
-741 0 -110 26 -201 85 -295 92 -148 236 -240 450 -287 170 -38 552 -23 639
25 51 29 86 71 86 104 0 59 -75 87 -188 71 -218 -30 -399 -26 -547 12 -164 43
-275 143 -312 280 -16 60 -16 101 1 185 19 95 29 124 66 197 125 246 393 423
572 379 74 -18 96 -35 119 -89 24 -56 42 -72 85 -72 36 0 56 16 81 63 23 46
20 99 -11 151 -53 91 -159 144 -300 151 -50 2 -109 0 -131 -5z"/>
<path d="M2140 1329 c-87 -30 -234 -107 -277 -144 -119 -102 -88 -217 87 -327
30 -19 89 -53 130 -75 41 -22 100 -55 130 -73 55 -33 316 -160 328 -160 4 0
38 -12 77 -26 38 -15 79 -30 90 -34 40 -15 92 -29 195 -55 58 -14 122 -30 142
-36 72 -19 255 -42 463 -59 154 -13 611 -6 755 11 186 22 459 65 605 96 376
79 711 196 959 336 142 80 186 128 186 204 0 46 -35 102 -82 131 -34 21 -109
50 -188 72 -25 7 -90 31 -144 52 -115 46 -150 45 -190 -3 -31 -37 -33 -63 -6
-106 25 -41 133 -94 283 -138 31 -9 57 -18 57 -20 0 -9 -106 -66 -190 -103
-131 -57 -269 -105 -435 -154 -173 -50 -165 -48 -490 -109 -49 -9 -178 -28
-325 -48 -41 -6 -191 -16 -333 -22 -203 -10 -291 -10 -415 0 -174 14 -339 35
-447 58 -38 8 -88 18 -110 22 -22 5 -67 16 -100 26 -33 9 -73 20 -90 24 -118
31 -366 145 -610 280 -142 80 -161 93 -151 110 8 12 101 57 179 86 107 40 131
147 42 190 -41 19 -57 18 -125 -6z"/>
</g>
</svg>
