<?xml version="1.0" standalone="no"?>
<!DOCTYPE svg PUBLIC "-//W3C//DTD SVG 20010904//EN"
 "http://www.w3.org/TR/2001/REC-SVG-20010904/DTD/svg10.dtd">
<svg version="1.0" xmlns="http://www.w3.org/2000/svg"
 width="768.000000pt" height="768.000000pt" viewBox="0 0 768.000000 768.000000"
 preserveAspectRatio="xMidYMid meet">
<g transform="translate(0.000000,768.000000) scale(0.100000,-0.100000)"
fill="#000000" stroke="none">
<path d="M1347 6154 c-149 -32 -273 -101 -389 -216 -130 -127 -230 -290 -303
-492 l-32 -90 -97 195 c-101 201 -134 249 -172 249 -25 0 -54 -34 -54 -64 0
-16 209 -471 230 -501 24 -35 38 -94 30 -131 -16 -66 -38 -272 -45 -399 -4
-95 5 -361 18 -513 2 -21 -9 -27 -123 -66 -152 -52 -166 -59 -190 -99 -26 -42
-25 -59 5 -87 25 -23 28 -24 98 -12 39 6 101 20 137 30 36 11 71 21 78 23 20
6 28 -15 47 -121 44 -242 117 -489 222 -753 30 -75 53 -141 51 -145 -2 -5 -59
-58 -128 -118 -219 -192 -316 -301 -387 -434 -51 -97 -67 -156 -68 -250 0 -76
3 -92 32 -150 72 -147 219 -262 421 -329 319 -108 856 -105 1262 5 605 164
1032 448 1228 816 132 249 128 561 -9 818 -228 426 -862 804 -1499 894 -108
15 -351 35 -475 39 l-69 2 99 59 c275 164 475 316 671 511 200 200 323 371
376 524 19 54 23 88 23 186 0 115 -1 123 -32 185 -80 162 -287 323 -509 394
-167 54 -320 67 -447 40z m280 -135 c168 -41 248 -74 360 -151 180 -124 244
-250 209 -415 -29 -142 -109 -270 -296 -477 -59 -65 -239 -224 -342 -302 -108
-83 -318 -221 -419 -277 l-66 -37 -13 28 c-7 15 -36 81 -65 147 -124 284 -156
355 -200 450 -90 193 -83 171 -68 237 23 98 90 276 139 367 57 105 104 168
183 247 131 132 266 193 433 194 54 0 119 -5 145 -11z m-842 -1344 c53 -121
103 -233 110 -250 29 -63 45 -108 45 -122 0 -23 -187 -103 -242 -103 -25 0
-27 3 -35 68 -10 87 -10 565 0 617 11 48 2 64 122 -210z m739 -575 c367 -42
610 -110 873 -244 365 -185 613 -413 720 -661 47 -109 58 -166 57 -310 -1
-115 -4 -139 -28 -205 -54 -149 -132 -265 -260 -388 -259 -247 -653 -426
-1146 -521 -239 -46 -594 -44 -835 4 -235 47 -409 155 -477 293 -44 91 0 253
105 389 80 103 375 377 393 365 6 -4 36 -54 68 -112 138 -248 302 -476 434
-602 129 -123 208 -149 274 -89 32 29 33 31 32 108 -1 75 -25 255 -44 338 -45
192 -72 304 -80 325 -5 14 -20 66 -35 115 -100 343 -235 746 -364 1093 -17 46
-31 90 -31 98 0 11 23 14 127 14 70 0 167 -5 217 -10z m-487 -31 c11 -23 44
-113 188 -509 13 -36 53 -159 90 -275 36 -115 72 -228 80 -250 7 -22 27 -89
45 -150 17 -60 35 -121 40 -135 18 -51 80 -318 90 -385 22 -152 30 -219 24
-224 -10 -10 -188 184 -254 277 -87 123 -217 332 -266 426 l-39 76 66 60 c64
57 129 143 129 169 0 29 -151 -24 -232 -81 -9 -7 -20 -9 -23 -6 -12 12 -85
201 -131 338 -68 205 -144 523 -144 606 0 27 5 34 38 47 51 20 218 47 272 43
8 -1 20 -13 27 -27z"/>
<path d="M4950 3678 c-9 -12 -16 -41 -16 -64 0 -50 25 -77 67 -72 37 4 52 39
44 103 -6 49 -7 50 -43 53 -28 2 -40 -2 -52 -20z"/>
<path d="M4580 3399 c-232 -32 -323 -55 -424 -105 -38 -19 -85 -48 -105 -64
l-35 -30 -12 23 c-6 12 -15 45 -19 72 -11 79 -30 115 -59 115 -37 0 -66 -43
-66 -100 0 -49 12 -126 35 -225 7 -33 13 -109 13 -170 0 -159 47 -316 110
-366 55 -43 122 -10 122 59 0 44 -20 144 -55 267 -30 108 -31 140 -6 180 71
116 179 159 534 210 118 17 154 31 186 70 23 30 19 48 -12 63 -40 19 -71 20
-207 1z"/>
<path d="M6960 3357 c-87 -29 -159 -84 -221 -168 -29 -38 -55 -69 -58 -69 -3
0 -16 23 -28 50 -26 59 -59 80 -98 62 -39 -18 -34 -82 16 -222 22 -63 54 -167
70 -230 24 -95 34 -120 59 -142 36 -34 59 -35 89 -7 21 19 22 27 16 78 -4 31
-13 74 -21 96 -43 123 20 291 144 384 99 75 223 64 325 -28 43 -39 63 -87 76
-186 38 -293 50 -328 104 -323 38 4 62 43 60 98 -3 104 -44 345 -67 395 -48
106 -141 183 -265 217 -85 23 -121 22 -201 -5z"/>
<path d="M5879 3315 c-160 -22 -247 -54 -316 -117 -63 -59 -83 -103 -83 -183
0 -116 65 -211 164 -240 110 -33 269 27 384 144 50 52 65 62 72 51 6 -8 10
-22 10 -30 1 -46 65 -206 98 -246 35 -42 98 -58 119 -31 23 29 21 49 -9 104
-58 110 -92 234 -103 373 -4 47 -11 97 -17 112 -11 29 -50 51 -118 67 -55 13
-80 12 -201 -4z m154 -131 c12 -12 -46 -109 -99 -164 -63 -66 -130 -105 -197
-115 -58 -9 -92 10 -114 62 -31 75 6 136 106 174 89 33 285 61 304 43z"/>
<path d="M5004 3248 c-14 -27 -16 -49 -10 -123 29 -380 82 -626 141 -649 34
-13 65 -6 81 19 18 28 17 40 -19 165 -14 47 -32 148 -41 225 -27 230 -47 349
-62 373 -23 35 -69 30 -90 -10z"/>
</g>
</svg>
