<?xml version="1.0" standalone="no"?>
<!DOCTYPE svg PUBLIC "-//W3C//DTD SVG 20010904//EN"
 "http://www.w3.org/TR/2001/REC-SVG-20010904/DTD/svg10.dtd">
<svg version="1.0" xmlns="http://www.w3.org/2000/svg"
 width="768.000000pt" height="768.000000pt" viewBox="0 0 768.000000 768.000000"
 preserveAspectRatio="xMidYMid meet">
<g transform="translate(0.000000,768.000000) scale(0.100000,-0.100000)"
fill="#000000" stroke="none">
<path d="M1443 7368 c-7 -8 -13 -123 -16 -298 -6 -290 -31 -548 -77 -785 -33
-168 -55 -273 -80 -370 -71 -276 -102 -392 -124 -463 -13 -42 -31 -104 -41
-137 -9 -33 -21 -71 -26 -85 -15 -43 -125 -410 -155 -515 -9 -33 -22 -80 -30
-105 -37 -131 -104 -419 -144 -625 -108 -557 -107 -1077 4 -1383 63 -176 200
-331 351 -397 157 -70 445 -74 695 -11 319 81 905 344 1275 572 44 27 102 63
129 79 104 64 126 84 126 114 0 67 -78 107 -118 60 -34 -42 -53 -56 -229 -161
-226 -135 -422 -235 -677 -344 -338 -145 -512 -202 -704 -228 -275 -39 -455 2
-586 132 -157 155 -216 371 -216 790 0 273 18 451 84 807 35 190 141 613 212
840 49 161 49 160 120 395 194 647 262 956 313 1412 39 346 36 630 -6 687 -22
29 -64 39 -80 19z"/>
<path d="M3806 3678 c-9 -12 -16 -41 -16 -64 0 -50 25 -77 67 -72 37 4 52 39
44 103 -6 49 -7 50 -43 53 -28 2 -40 -2 -52 -20z"/>
<path d="M3968 3022 c-57 -51 -137 -241 -169 -401 -17 -87 -9 -209 16 -243 38
-50 86 -61 129 -27 36 28 34 62 -6 93 l-32 25 11 84 c10 73 58 235 118 396 33
91 -2 130 -67 73z"/>
<path d="M6365 3005 c-14 -13 -25 -33 -25 -45 0 -18 -6 -20 -64 -20 -53 0 -75
-6 -136 -36 -101 -51 -181 -131 -204 -207 -17 -55 -17 -61 -2 -101 21 -53 49
-81 105 -101 84 -29 182 -10 279 55 44 30 59 36 64 25 11 -18 48 -137 48 -152
0 -7 -78 -91 -173 -185 -100 -100 -200 -210 -236 -260 -158 -222 -237 -441
-261 -728 -38 -451 111 -925 328 -1043 71 -39 124 -44 194 -17 190 71 362 380
444 795 26 130 26 573 1 730 -32 194 -64 347 -107 500 -44 159 -46 142 14 205
90 95 155 190 130 190 -15 0 -115 -48 -163 -78 -29 -18 -57 -30 -61 -25 -9 10
-29 81 -46 161 -11 53 -11 68 1 103 18 49 20 163 4 208 -20 56 -91 70 -134 26z
m-55 -200 c48 -25 41 -63 -20 -118 -74 -67 -180 -96 -225 -63 -16 12 -17 17
-6 45 18 41 81 97 145 127 60 28 68 29 106 9z m201 -665 c29 -111 67 -298 88
-435 32 -196 31 -547 0 -705 -57 -287 -140 -483 -262 -617 -104 -113 -173
-111 -266 8 -128 161 -202 478 -188 799 14 289 104 545 263 747 78 97 316 335
327 324 5 -5 22 -59 38 -121z"/>
<path d="M5265 2923 c-16 -8 -48 -33 -71 -54 l-40 -39 -33 16 c-43 21 -77 7
-97 -41 -28 -67 0 -305 35 -305 5 0 16 -2 24 -6 24 -9 76 43 83 84 16 88 118
232 164 232 21 0 79 -64 118 -130 23 -38 27 -56 27 -123 0 -71 2 -81 24 -98
31 -25 37 -24 70 9 37 37 46 98 26 175 -19 72 -31 95 -89 175 -79 107 -166
145 -241 105z"/>
<path d="M4677 2840 c-22 -18 -31 -19 -78 -10 -110 21 -209 -38 -239 -144 -28
-101 26 -205 115 -222 51 -9 112 17 165 71 24 25 47 45 51 45 4 0 11 -9 14
-21 4 -11 20 -36 37 -55 33 -38 75 -45 102 -18 22 22 20 42 -10 98 -18 35 -28
72 -33 130 -8 87 -22 119 -58 135 -32 15 -36 14 -66 -9z"/>
</g>
</svg>
