<?xml version="1.0" standalone="no"?>
<!DOCTYPE svg PUBLIC "-//W3C//DTD SVG 20010904//EN"
 "http://www.w3.org/TR/2001/REC-SVG-20010904/DTD/svg10.dtd">
<svg version="1.0" xmlns="http://www.w3.org/2000/svg"
 width="768.000000pt" height="768.000000pt" viewBox="0 0 768.000000 768.000000"
 preserveAspectRatio="xMidYMid meet">
<metadata>
Created by potrace 1.15, written by Peter Selinger 2001-2017
</metadata>
<g transform="translate(0.000000,768.000000) scale(0.100000,-0.100000)"
fill="#000000" stroke="none">
<path d="M7170 6315 c-118 -13 -280 -30 -360 -39 -80 -9 -210 -23 -290 -31
-255 -27 -412 -46 -515 -60 -55 -8 -156 -21 -225 -30 -259 -34 -718 -116 -975
-175 -243 -56 -655 -164 -775 -203 -25 -8 -99 -32 -165 -52 -795 -246 -1296
-539 -1795 -1051 -141 -145 -239 -265 -264 -325 -31 -75 39 -123 85 -57 98
142 471 504 690 670 276 210 594 383 934 510 94 36 430 147 530 176 396 116
516 147 925 237 84 19 475 92 560 104 36 6 94 15 130 20 36 5 119 17 185 26
66 9 149 20 185 26 36 5 108 14 160 20 52 5 158 16 235 25 77 8 201 21 275 29
212 23 413 44 560 60 145 15 193 26 253 57 47 24 46 49 -3 64 -67 21 -127 21
-340 -1z"/>
<path d="M6230 5884 c-157 -75 -329 -143 -610 -240 -584 -200 -1295 -495
-1760 -729 -800 -403 -1612 -987 -2095 -1505 -242 -260 -541 -789 -851 -1508
-103 -240 -248 -414 -464 -558 -121 -80 -127 -86 -173 -164 -27 -45 -46 -84
-42 -88 9 -10 204 92 310 162 118 78 276 236 350 349 47 72 121 222 230 462
296 654 563 1099 803 1336 254 251 618 552 912 754 517 356 946 600 1433 817
526 233 900 383 1362 543 439 153 722 272 745 314 16 31 12 69 -9 81 -33 17
-63 12 -141 -26z"/>
<path d="M4445 4852 c-1021 -581 -1188 -691 -1495 -987 -179 -172 -299 -313
-406 -476 -165 -251 -228 -425 -174 -479 41 -41 70 -20 106 80 35 101 73 172
170 320 99 152 170 239 322 394 273 277 491 437 992 724 135 77 335 192 445
255 110 63 212 127 228 141 29 29 35 64 15 84 -28 28 -81 13 -203 -56z"/>
<path d="M1552 4488 c-26 -34 -25 -54 27 -383 23 -142 27 -329 11 -416 -14
-72 -14 -183 0 -208 33 -63 99 20 121 152 17 102 17 327 0 427 -33 188 -89
390 -118 423 -19 20 -27 21 -41 5z"/>
<path d="M1975 2929 c-51 -9 -284 -93 -350 -125 -56 -28 -75 -48 -75 -80 0
-28 24 -47 58 -47 24 0 159 47 374 129 78 30 140 87 116 109 -18 17 -74 23
-123 14z"/>
</g>
</svg>
